<svg width="24" height="24" viewBox="0 0 24 24" fill="none" xmlns="http://www.w3.org/2000/svg">
<path d="M21.75 5.96015C21.0328 6.26953 20.2523 6.49218 19.4484 6.5789C20.2831 6.08305 20.9081 5.29968 21.2063 4.37578C20.4231 4.84169 19.5651 5.16839 18.6703 5.3414C18.2964 4.94162 17.8441 4.62313 17.3417 4.40579C16.8392 4.18845 16.2974 4.07691 15.75 4.07812C13.5352 4.07812 11.7539 5.87343 11.7539 8.07656C11.7539 8.38593 11.7914 8.69531 11.8524 8.99297C8.53596 8.81953 5.57815 7.23515 3.61174 4.80937C3.25344 5.42136 3.06568 6.11818 3.06799 6.82734C3.06799 8.21484 3.77346 9.43828 4.84924 10.1578C4.21527 10.1328 3.59614 9.95859 3.04221 9.64922V9.69843C3.04221 11.6414 4.41565 13.2516 6.24611 13.6219C5.90242 13.7112 5.54887 13.7568 5.19377 13.7578C4.93362 13.7578 4.68752 13.732 4.43908 13.6969C4.94533 15.2813 6.41955 16.432 8.17502 16.4695C6.80158 17.5453 5.08127 18.1781 3.2133 18.1781C2.87815 18.1781 2.56877 18.1664 2.24768 18.1289C4.01955 19.2656 6.1219 19.9219 8.38596 19.9219C15.7359 19.9219 19.7578 13.8328 19.7578 8.54765C19.7578 8.37422 19.7578 8.20078 19.7461 8.02734C20.5242 7.45781 21.2063 6.75234 21.75 5.96015Z" fill="#242635"/>
</svg>
