<svg width="104" height="104" viewBox="0 0 104 104" fill="none" xmlns="http://www.w3.org/2000/svg">
<g clip-path="url(#clip0_109_167)">
<path d="M51.8474 0.801025C38.2673 0.801025 25.2434 6.1957 15.6408 15.7983C6.03823 25.4008 0.643555 38.4247 0.643555 52.0048C0.643555 65.5849 6.03823 78.6088 15.6408 88.2114C25.2434 97.814 38.2673 103.209 51.8474 103.209C65.4274 103.209 78.4513 97.814 88.0539 88.2114C97.6565 78.6088 103.051 65.5849 103.051 52.0048C103.051 38.4247 97.6565 25.4008 88.0539 15.7983C78.4513 6.1957 65.4274 0.801025 51.8474 0.801025V0.801025ZM75.3307 74.6497C75.1123 75.0079 74.8253 75.3195 74.4862 75.5666C74.1471 75.8136 73.7626 75.9913 73.3546 76.0894C72.9467 76.1876 72.5234 76.2042 72.109 76.1383C71.6947 76.0725 71.2974 75.9255 70.94 75.7058C58.9135 68.3644 43.7828 66.7003 25.9574 70.7774C25.1316 70.9658 24.2647 70.8185 23.5475 70.3678C22.8303 69.917 22.3216 69.1999 22.1332 68.374C21.9447 67.5482 22.0921 66.6813 22.5428 65.9641C22.9935 65.2469 23.7107 64.7382 24.5365 64.5498C44.0452 60.095 60.776 62.0088 74.2682 70.259C74.9901 70.7014 75.5073 71.4119 75.7064 72.2349C75.9056 73.0578 75.7705 73.9262 75.3307 74.6497ZM81.5968 60.7095C81.0423 61.6114 80.1523 62.2563 79.1226 62.5023C78.0928 62.7483 77.0075 62.5754 76.1052 62.0216C62.3441 53.5665 41.3634 51.1152 25.0806 56.0563C24.0895 56.2918 23.0459 56.1404 22.1626 55.6328C21.2794 55.1253 20.6231 54.2999 20.3275 53.3251C20.0319 52.3502 20.1194 51.2993 20.5721 50.3867C21.0248 49.4742 21.8086 48.7687 22.7636 48.4142C41.357 42.7753 64.4755 45.5083 80.2783 55.2179C81.1813 55.7713 81.8274 56.6608 82.0747 57.6906C82.322 58.7205 82.15 59.8064 81.5968 60.7095ZM82.1344 46.1932C65.634 36.3877 38.4064 35.4852 22.6484 40.2664C21.433 40.6347 20.121 40.5052 19.0011 39.9062C17.8812 39.3072 17.0451 38.2879 16.6767 37.0725C16.3084 35.8571 16.4379 34.5451 17.0369 33.4252C17.6359 32.3053 18.6552 31.4692 19.8706 31.1009C37.9519 25.6157 68.0214 26.6717 87.0244 37.9494C88.1176 38.5978 88.9084 39.654 89.2229 40.8855C89.5374 42.1171 89.3497 43.4231 88.7013 44.5163C88.0528 45.6095 86.9967 46.4003 85.7652 46.7148C84.5336 47.0293 83.2276 46.8416 82.1344 46.1932Z" fill="#242635"/>
</g>
<defs>
<clipPath id="clip0_109_167">
<rect x="0.643555" y="0.801025" width="102.408" height="102.408" rx="10" fill="white"/>
</clipPath>
</defs>
</svg>
