<svg width="57" height="57" viewBox="0 0 57 57" fill="none" xmlns="http://www.w3.org/2000/svg">
<path d="M55.8191 13.8933L13.8065 56.1701L0.352449 42.6315L42.365 0.354667L55.8191 13.8933Z" fill="#FFA000" stroke="black" stroke-width="0.5"/>
<path d="M26.485 28.5089L20.2437 22.2284L22.135 20.3252L28.3763 26.6057L26.485 28.5089ZM29.1737 20.4455L25.6748 16.9246L27.5661 15.0214L31.065 18.5423L29.1737 20.4455ZM37.1867 17.7412L30.9455 11.4607L32.8368 9.5575L39.078 15.838L37.1867 17.7412ZM36.3192 6.10457L38.2105 4.20138L41.7094 7.72228L39.8181 9.62547L36.3192 6.10457ZM7.76892 41.9809L4.27002 38.46L6.16132 36.5568L9.66022 40.0777L7.76892 41.9809ZM15.7819 39.2766L9.54064 32.9961L11.4319 31.0929L17.6732 37.3734L15.7819 39.2766ZM18.472 31.2132L14.9731 27.6923L16.8644 25.7891L20.3633 29.31L18.472 31.2132Z" fill="#9E6400"/>
</svg>
