<svg width="51" height="74" viewBox="0 0 51 74" fill="none" xmlns="http://www.w3.org/2000/svg">
<path d="M36.951 30.8069V31.436C36.951 33.6678 35.1047 35.4801 32.8311 35.4801H29.3215H28.7112V30.8069C28.7112 28.5752 30.5575 26.7778 32.8311 26.7778C33.9603 26.7778 34.9979 27.2272 35.7456 27.9611C36.4933 28.68 36.951 29.6836 36.951 30.8069Z" fill="#FFBB00"/>
<path d="M33.8378 58.1268H32.9832C32.3576 57.7074 31.6099 57.4827 30.8012 57.4827H28.7107V35.4798H29.3211H32.8307C35.1043 35.4798 36.9506 33.6674 36.9506 31.4357V30.8066C36.9506 29.6832 36.4928 28.6797 35.7451 27.9607C34.9974 27.2268 33.9598 26.7775 32.8307 26.7775C30.5571 26.7775 28.7107 28.5749 28.7107 30.8066V35.4798H22.2867V30.8066C22.2867 28.5749 20.4403 26.7775 18.1667 26.7775C17.0223 26.7775 16 27.2268 15.2523 27.9607C14.5046 28.6797 14.0468 29.6832 14.0468 30.8066V31.4357C14.0468 33.6674 15.8932 35.4798 18.1667 35.4798H21.6763H22.2867V57.4827H20.1962C19.3875 57.4827 18.6398 57.7224 17.9989 58.1268H17.1597L3.79276 34.1467C1.94642 30.8216 1.00037 27.122 1.00037 23.3924C1.00037 21.9695 1.1377 20.5466 1.41236 19.1236C3.48759 8.60895 12.8871 1.00005 23.8126 1.00005H27.1848C32.6475 1.00005 37.7288 2.90227 41.6961 6.12258C45.6787 9.34288 48.5474 13.8663 49.585 19.1236C50.5921 24.2611 49.7529 29.5634 47.2046 34.1467L33.8378 58.1268Z" fill="#FFBB00"/>
<path d="M30.8012 57.4832C31.6099 57.4832 32.3576 57.7079 32.9832 58.1273H28.7107V57.4832H30.8012Z" fill="#FAFBFC"/>
<path d="M30.801 65.4513C31.9149 65.4513 32.922 65.9006 33.6697 66.6196C34.4021 67.3385 34.8599 68.3421 34.8599 69.4355C34.8599 71.6223 33.0288 73.4197 30.801 73.4197H20.196C19.0821 73.4197 18.0597 72.9703 17.3273 72.2514C16.5949 71.5324 16.1371 70.5289 16.1371 69.4355C16.1371 67.2486 17.9682 65.4513 20.196 65.4513H30.801Z" fill="#00607F"/>
<path d="M28.7106 58.127H22.2866V57.483H28.7106V58.127Z" fill="#FAFBFC"/>
<path d="M28.7106 57.4831H22.2866V35.4802H28.7106V57.4831Z" fill="#FFBB00"/>
<path d="M30.801 65.4513H20.196C19.0821 65.4513 18.0597 65.0019 17.3273 64.283C16.5949 63.564 16.1371 62.5605 16.1371 61.4671C16.1371 60.0591 16.8848 58.8309 17.9987 58.127H22.2865H28.7105H32.983C33.2272 58.2767 33.4561 58.4415 33.6697 58.6512C34.4021 59.3702 34.8599 60.3587 34.8599 61.4671C34.8599 63.6539 33.0288 65.4513 30.801 65.4513Z" fill="#00607F"/>
<path d="M22.2863 57.4832V58.1273H17.9985C18.6394 57.7229 19.3871 57.4832 20.1958 57.4832H22.2863Z" fill="#FAFBFC"/>
<path d="M22.2864 30.8069V35.4801H21.676H18.1664C15.8928 35.4801 14.0465 33.6678 14.0465 31.436V30.8069C14.0465 29.6836 14.5043 28.68 15.252 27.9611C15.9997 27.2272 17.022 26.7778 18.1664 26.7778C20.44 26.7778 22.2864 28.5752 22.2864 30.8069Z" fill="#FFBB00"/>
<path d="M23.8122 1.00056C12.8868 1.00056 3.48722 8.60947 1.41199 19.1241C1.13733 20.5471 1 21.97 1 23.3929C1 27.1225 1.94606 30.8221 3.7924 34.1472L17.1593 58.1273H17.9985" stroke="#141414" stroke-width="0.705556" stroke-miterlimit="10" stroke-linecap="round" stroke-linejoin="round"/>
<path d="M29.1074 1.0005H27.1848" stroke="#141414" stroke-width="0.705556" stroke-miterlimit="10" stroke-linecap="round" stroke-linejoin="round"/>
<path d="M21.89 1.0005H23.8126" stroke="#141414" stroke-width="0.705556" stroke-miterlimit="10" stroke-linecap="round" stroke-linejoin="round"/>
<path d="M32.9837 58.1268H33.8382L47.205 34.1467C49.7533 29.5634 50.5925 24.2611 49.5855 19.1236C48.5478 13.8663 45.6791 9.34288 41.6965 6.12258C37.7292 2.90227 32.648 1.00005 27.1852 1.00005H23.813" stroke="#141414" stroke-width="0.705556" stroke-miterlimit="10" stroke-linecap="round" stroke-linejoin="round"/>
<path d="M22.2864 57.4832V35.4803V30.8071C22.2864 28.5753 20.44 26.778 18.1664 26.778C17.022 26.778 15.9997 27.2273 15.252 27.9612C14.5043 28.6802 14.0465 29.6837 14.0465 30.8071V31.4362C14.0465 33.6679 15.8928 35.4803 18.1664 35.4803H21.676" stroke="#141414" stroke-width="0.705556" stroke-miterlimit="10" stroke-linecap="round" stroke-linejoin="round"/>
<path d="M28.7103 57.4832V35.4803V30.8071C28.7103 28.5753 30.5566 26.778 32.8302 26.778C33.9594 26.778 34.997 27.2273 35.7447 27.9612C36.4924 28.6802 36.9502 29.6837 36.9502 30.8071V31.4362C36.9502 33.6679 35.1038 35.4803 32.8302 35.4803H29.3207H28.7103H22.2863H21.6759" stroke="#141414" stroke-width="0.705556" stroke-miterlimit="10" stroke-linecap="round" stroke-linejoin="round"/>
<path d="M30.801 65.4513C33.0288 65.4513 34.8599 63.6539 34.8599 61.4671C34.8599 60.3587 34.4021 59.3702 33.6697 58.6512C33.4561 58.4415 33.2272 58.2767 32.983 58.127C32.3574 57.7076 31.6097 57.4829 30.801 57.4829H28.7105H22.2865H20.196C19.3873 57.4829 18.6396 57.7226 17.9987 58.127C16.8848 58.8309 16.1371 60.0591 16.1371 61.4671C16.1371 62.5605 16.5949 63.564 17.3273 64.283C18.0597 65.0019 19.0821 65.4513 20.196 65.4513" stroke="#141414" stroke-width="0.705556" stroke-miterlimit="10" stroke-linecap="round" stroke-linejoin="round"/>
<path d="M30.801 65.4513H20.196C17.9682 65.4513 16.1371 67.2486 16.1371 69.4355C16.1371 70.5289 16.5949 71.5324 17.3273 72.2514C18.0597 72.9703 19.0821 73.4196 20.196 73.4196H30.801C33.0288 73.4196 34.8599 71.6223 34.8599 69.4355C34.8599 68.3421 34.4021 67.3385 33.6697 66.6196C32.922 65.9006 31.9149 65.4513 30.801 65.4513Z" stroke="#141414" stroke-width="0.705556" stroke-miterlimit="10" stroke-linecap="round" stroke-linejoin="round"/>
</svg>
