<svg width="68" height="68" viewBox="0 0 68 68" fill="none" xmlns="http://www.w3.org/2000/svg">
<path d="M50.4137 65.2637C52.7054 65.2637 54.5645 63.4055 54.5645 61.1139V5.86465C54.5645 3.57301 52.7054 1.71386 50.4137 1.71386H16.4144C14.1238 1.71386 12.2656 3.57297 12.2656 5.86465V61.1139C12.2656 63.4056 14.1238 65.2637 16.4144 65.2637H50.4137Z" fill="#DCE2E9" stroke="black" stroke-width="0.2"/>
<path d="M50.4137 64.4003H16.4144C14.479 64.4003 12.8381 63.1354 12.2745 61.3867C12.4149 63.5512 14.2154 65.2637 16.4144 65.2637H50.4137C52.6139 65.2637 54.4154 63.551 54.5557 61.3863C53.9919 63.1352 52.3501 64.4003 50.4137 64.4003Z" fill="#BFC8D5" stroke="black" stroke-width="0.2"/>
<path d="M49.3521 52.5139C50.4713 52.5139 51.377 51.6073 51.377 50.488V6.92669C51.377 5.80852 50.4713 4.90281 49.3521 4.90281H17.4777C16.3594 4.90281 15.4518 5.80861 15.4518 6.92669V50.488C15.4518 51.6072 16.3595 52.5139 17.4777 52.5139H49.3521Z" fill="#5A6271" stroke="black" stroke-width="0.2"/>
<path d="M33.4152 61.0136C35.1196 61.0136 36.5015 59.6317 36.5015 57.9262C36.5015 56.2208 35.1196 54.8389 33.4152 54.8389C31.7087 54.8389 30.3268 56.2208 30.3268 57.9262C30.3268 59.6317 31.7087 61.0136 33.4152 61.0136Z" fill="#8C93A1" stroke="black" stroke-width="0.2"/>
<g opacity="0.5">
<g opacity="0.5">
<path opacity="0.5" d="M15.4522 50.4879C15.4522 51.0838 15.7153 51.6143 16.1285 51.9857L50.545 5.30305C50.2101 5.05419 49.8008 4.90271 49.3514 4.90271H17.4771C16.3588 4.90271 15.4522 5.80845 15.4522 6.92659V50.4879Z" fill="#8C93A1" stroke="black" stroke-width="0.2"/>
</g>
</g>
</svg>
